<?xml version="1.0" encoding="utf-8"?>
<!-- Generator: Adobe Illustrator 19.2.0, SVG Export Plug-In . SVG Version: 6.00 Build 0)  -->
<svg version="1.1" id="Слой_1" xmlns="http://www.w3.org/2000/svg" xmlns:xlink="http://www.w3.org/1999/xlink" x="0px" y="0px"
	 viewBox="0 0 68.6 68.7" style="enable-background:new 0 0 68.6 68.7;" xml:space="preserve">
<style type="text/css">
	.st0{fill:#7C7C7C;}
	.st1{fill:#EDEDED;}
	.st2{fill:#E1E1E1;}
	.st3{fill:#F4F4F4;}
	.st4{fill:#CCD0D2;}
	.st5{fill:#B8BCBE;}
</style>
<path class="st0" d="M56.7,20.6c-0.4-0.1-0.9,0-1.2,0.4L45.3,31.4c-1,1-4.5,0.3-6.8-0.6c-0.9-2.3-1.7-5.8-0.6-6.8l10.5-10.2
	c0.3-0.3,0.5-0.8,0.4-1.2c-0.1-0.4-0.4-0.8-0.8-1c-6.5-2.6-14-1.1-18.9,3.9c-4.4,4.4-6,10.5-4.7,16.2c-0.2,2.8-2.7,6.1-4.1,7.5
	L9.9,49.5c2.6,3.8,5.9,7,9.8,9.6l9.7-9.7c1.4-1.3,5.1-3.9,7.9-4.2c0.4,0,1.3,0.1,1.5,0.1l0,0c5.5,0.8,11-1,15-4.9
	c5-5,6.5-12.4,3.9-18.9C57.5,21,57.2,20.7,56.7,20.6z"/>
<path class="st1" d="M56.7,19.9c-0.4-0.1-0.9,0-1.2,0.4L45.3,30.7c-1,1-4.5,0.3-6.8-0.6c-0.9-2.3-1.7-5.8-0.6-6.8l10.5-10.2
	c0.3-0.3,0.5-0.8,0.4-1.2c-0.1-0.4-0.4-0.8-0.8-1c-6.5-2.6-14-1.1-18.9,3.9c-4.4,4.4-6,10.5-4.7,16.2c-0.2,2.8-2.7,6.1-4.1,7.5
	L9.7,49.1c2.6,3.8,5.8,7.1,9.7,9.7l10.2-10.2c1.4-1.3,5.1-3.9,7.9-4.2c0.4,0,1.3,0.1,1.5,0.1l0,0c5.5,0.8,11-1,15-4.9
	c5-5,6.5-12.4,3.9-18.9C57.5,20.3,57.2,20,56.7,19.9z"/>
<g>
	<path class="st2" d="M58.8,25.1c0.1,0.8,0.1,1.6,0.1,2.3c-0.1-2-0.5-4.1-1.2-6c-0.2-0.4-0.5-0.7-1-0.8c-0.4-0.1-0.9,0-1.2,0.4
		L45.3,31.4c-1,1-4.5,0.3-6.8-0.6c-0.1-0.2-0.2-0.4-0.2-0.6L14,54.4c1.6,1.6,3.4,3.1,5.3,4.4l10.2-10.2c1.4-1.3,5.1-3.9,7.9-4.2
		c0.4,0,1.3,0.1,1.5,0.1l0,0c5.5,0.8,11-1,15-4.9C57.7,35.8,59.4,30.4,58.8,25.1z M58.2,22.1l-0.1-0.3L58.2,22.1z M58.8,24.8
		c0-0.2-0.1-0.4-0.1-0.6C58.7,24.4,58.7,24.6,58.8,24.8z M58.5,23.5L58.4,23L58.5,23.5z"/>
</g>
<path class="st3" d="M29,15.5c5-5,12.4-6.5,18.9-3.9c0.4,0.2,0.7,0.5,0.8,0.9c0.1-0.2,0.1-0.4,0-0.6c-0.1-0.4-0.4-0.8-0.8-1
	c-6.5-2.6-14-1.1-18.9,3.9c-3.5,3.5-5.2,8-5.1,12.6C24,23.1,25.7,18.8,29,15.5z M20.2,38.6L9.7,49.1l0.3,0.4l10.2-10.2
	c1.3-1.4,3.9-4.7,4.1-7.5l0-0.3C23.8,34.2,21.4,37.3,20.2,38.6z"/>
<path class="st4" d="M24.2,41.8L12.8,53.1c0.8,0.9,1.7,1.7,2.5,2.5l11.4-11.4c0.7-0.7,0.7-1.8,0-2.5S24.9,41.1,24.2,41.8z"/>
<path class="st5" d="M24.2,41.8L12.8,53.1l0.3,0.4l11-11c0.7-0.7,1.8-0.7,2.5,0c0.3,0.3,0.4,0.6,0.5,0.9c0.1-0.6,0-1.2-0.5-1.6
	C26,41.1,24.9,41.1,24.2,41.8z"/>
</svg>
